<?xml version="1.0" encoding="UTF-8"?>
<svg id="Layer_1" data-name="Layer 1" xmlns="http://www.w3.org/2000/svg" viewBox="0 0 200 60">
  <defs>
    <style>
      .cls-1 {
        stroke-width: 0px;
      }
    </style>
  </defs>
  <path class="cls-1" d="m1.69,29.31C1.69,13.98,14.58,1.01,30.15,1.01c8.03,0,13.3,2.35,17.11,4.62.41.32.57.57.41,1.05l-1.05,2.19c-.24.41-.57.32-.97.16-3.16-2.03-8.11-4.54-15.49-4.54-13.3,0-24.41,11.43-24.41,24.81,0,15,11.35,24.97,24.49,24.97,7.38,0,12.33-2.51,15.57-4.54.41-.24.73-.24.89.16l1.05,2.27c.24.41.08.65-.32.89-3.89,2.35-9.16,4.7-17.27,4.7-15.65,0-28.46-11.27-28.46-28.46Z"/>
  <path class="cls-1" d="m60.88,1.74c.32,0,.57.24.57.57v54.08c0,.32-.24.57-.57.57h-2.76c-.32,0-.57-.24-.57-.57V2.31c0-.32.24-.57.57-.57h2.76Z"/>
  <path class="cls-1" d="m72.24,56.39c-.16.32-.41.57-.81.57h-2.68c-.32,0-.57-.16-.57-.41,0-.16,0-.32.16-.65L90.48,2.23c.16-.57.41-.73.89-.73h2.84c.49,0,.73.16.89.73l22.14,53.6c.08.24.24.57.24.73,0,.24-.24.41-.57.41h-2.84c-.49,0-.73-.24-.81-.57l-5.92-14.27h-29.27l-5.84,14.27ZM92.75,6.28l-13.54,32.68h27.08l-13.54-32.68Z"/>
  <path class="cls-1" d="m154.87,1.74c.32,0,.57.24.57.57v2.35c0,.24-.24.57-.57.57h-19.54v51.17c0,.32-.24.57-.49.57h-2.84c-.24,0-.57-.24-.57-.57V5.23h-19.46c-.32,0-.57-.32-.57-.57v-2.35c0-.32.24-.57.57-.57h42.89Z"/>
  <path class="cls-1" d="m153.33,56.39c-.16.32-.41.57-.81.57h-2.68c-.32,0-.57-.16-.57-.41,0-.16,0-.32.16-.65L171.57,2.23c.16-.57.41-.73.89-.73h2.84c.49,0,.73.16.89.73l22.14,53.6c.08.24.24.57.24.73,0,.24-.24.41-.57.41h-2.84c-.49,0-.73-.24-.81-.57l-5.92-14.27h-29.27l-5.84,14.27Zm20.51-50.11l-13.54,32.68h27.08l-13.54-32.68Z"/>
</svg>